<svg width="26" height="30" viewBox="0 0 26 30" fill="none" xmlns="http://www.w3.org/2000/svg">
<g clip-path="url(#clip0_39_1566)">
<path d="M13.1547 0C12.1541 0 11.3457 0.837891 11.3457 1.875V3C7.21889 3.86719 4.10966 7.65234 4.10966 12.1875V13.6758C4.10966 16.3359 3.23343 18.9199 1.63359 20.9941L0.791272 22.0898C0.46339 22.5117 0.401206 23.0918 0.627331 23.5781C0.853456 24.0645 1.32832 24.375 1.84841 24.375H24.4609C24.981 24.375 25.4559 24.0645 25.682 23.5781C25.9081 23.0918 25.846 22.5117 25.5181 22.0898L24.6758 21C23.0759 18.9199 22.1997 16.3359 22.1997 13.6758V12.1875C22.1997 7.65234 19.0905 3.86719 14.9637 3V1.875C14.9637 0.837891 14.1553 0 13.1547 0ZM13.1547 5.625C16.654 5.625 19.4862 8.56055 19.4862 12.1875V13.6758C19.4862 16.4824 20.272 19.2188 21.7305 21.5625H4.57887C6.03738 19.2188 6.82317 16.4824 6.82317 13.6758V12.1875C6.82317 8.56055 9.65539 5.625 13.1547 5.625ZM16.7727 26.25H13.1547H9.53667C9.53667 27.2461 9.91543 28.2012 10.5938 28.9043C11.2722 29.6074 12.1936 30 13.1547 30C14.1157 30 15.0372 29.6074 15.7155 28.9043C16.3939 28.2012 16.7727 27.2461 16.7727 26.25Z" fill="black"/>
</g>
<defs>
<clipPath id="clip0_39_1566">
<rect width="25.326" height="30" fill="white" transform="translate(0.491455)"/>
</clipPath>
</defs>
</svg>
