<svg width="7" height="30" viewBox="0 0 7 30" fill="none" xmlns="http://www.w3.org/2000/svg">
<g clip-path="url(#clip0_39_1562)">
<path d="M3.52309 21.0938C2.71627 21.0938 1.94249 21.4395 1.37198 22.0548C0.801466 22.6702 0.480957 23.5048 0.480957 24.375C0.480957 25.2452 0.801466 26.0798 1.37198 26.6952C1.94249 27.3105 2.71627 27.6562 3.52309 27.6562C4.32991 27.6562 5.10369 27.3105 5.6742 26.6952C6.24471 26.0798 6.56522 25.2452 6.56522 24.375C6.56522 23.5048 6.24471 22.6702 5.6742 22.0548C5.10369 21.4395 4.32991 21.0938 3.52309 21.0938ZM3.52309 11.7188C2.71627 11.7188 1.94249 12.0645 1.37198 12.6798C0.801466 13.2952 0.480957 14.1298 0.480957 15C0.480957 15.8702 0.801466 16.7048 1.37198 17.3202C1.94249 17.9355 2.71627 18.2812 3.52309 18.2812C4.32991 18.2812 5.10369 17.9355 5.6742 17.3202C6.24471 16.7048 6.56522 15.8702 6.56522 15C6.56522 14.1298 6.24471 13.2952 5.6742 12.6798C5.10369 12.0645 4.32991 11.7188 3.52309 11.7188ZM6.56522 5.625C6.56522 4.75476 6.24471 3.92016 5.6742 3.30481C5.10369 2.68945 4.32991 2.34375 3.52309 2.34375C2.71627 2.34375 1.94249 2.68945 1.37198 3.30481C0.801466 3.92016 0.480957 4.75476 0.480957 5.625C0.480957 6.49524 0.801466 7.32984 1.37198 7.94519C1.94249 8.56055 2.71627 8.90625 3.52309 8.90625C4.32991 8.90625 5.10369 8.56055 5.6742 7.94519C6.24471 7.32984 6.56522 6.49524 6.56522 5.625Z" fill="black"/>
</g>
<defs>
<clipPath id="clip0_39_1562">
<rect width="6.95345" height="30" fill="white" transform="translate(0.0463867)"/>
</clipPath>
</defs>
</svg>
