<svg width="181" height="46" viewBox="0 0 181 46" fill="none" xmlns="http://www.w3.org/2000/svg">
<rect width="181" height="46" rx="5" fill="#4E4DC1"/>
<path d="M26.3729 12.1818H30.9858V26.3509C30.9858 27.9418 30.6058 29.3338 29.8459 30.527C29.093 31.7202 28.0384 32.6506 26.6818 33.3182C25.3253 33.9787 23.745 34.3089 21.9411 34.3089C20.13 34.3089 18.5462 33.9787 17.1896 33.3182C15.8331 32.6506 14.7784 31.7202 14.0256 30.527C13.2727 29.3338 12.8963 27.9418 12.8963 26.3509V12.1818H17.5092V25.9567C17.5092 26.7876 17.6903 27.5263 18.0526 28.1726C18.4219 28.8189 18.9403 29.3267 19.608 29.696C20.2756 30.0653 21.0533 30.25 21.9411 30.25C22.8359 30.25 23.6136 30.0653 24.2741 29.696C24.9418 29.3267 25.4567 28.8189 25.8189 28.1726C26.1882 27.5263 26.3729 26.7876 26.3729 25.9567V12.1818ZM39.2342 24.5398V34H34.6958V17.6364H39.0211V20.5234H39.2129C39.5751 19.5717 40.1824 18.8189 41.0346 18.2649C41.8869 17.7038 42.9203 17.4233 44.1348 17.4233C45.2711 17.4233 46.2619 17.6719 47.1071 18.169C47.9522 18.6662 48.6092 19.3764 49.0779 20.2997C49.5467 21.2159 49.7811 22.3097 49.7811 23.581V34H45.2427V24.3906C45.2498 23.3892 44.9941 22.608 44.4757 22.0469C43.9572 21.4787 43.2434 21.1946 42.3343 21.1946C41.7235 21.1946 41.1838 21.326 40.715 21.5888C40.2534 21.8516 39.8912 22.2351 39.6284 22.7393C39.3727 23.2365 39.2413 23.8366 39.2342 24.5398ZM53.4432 34V12.1818H57.9815V20.3849H58.12C58.3189 19.9446 58.6065 19.4972 58.983 19.0426C59.3665 18.581 59.8636 18.1974 60.4744 17.892C61.0923 17.5795 61.8594 17.4233 62.7756 17.4233C63.9688 17.4233 65.0696 17.7358 66.0781 18.3608C67.0866 18.9787 67.8928 19.9126 68.4964 21.1626C69.1001 22.4055 69.402 23.9645 69.402 25.8395C69.402 27.6648 69.1072 29.206 68.5178 30.4631C67.9354 31.7131 67.1399 32.6612 66.1314 33.3075C65.13 33.9467 64.0078 34.2663 62.7649 34.2663C61.8842 34.2663 61.1349 34.1207 60.517 33.8295C59.9062 33.5384 59.4055 33.1726 59.0149 32.7322C58.6243 32.2848 58.326 31.8338 58.12 31.3793H57.9176V34H53.4432ZM57.8857 25.8182C57.8857 26.7912 58.0206 27.6399 58.2905 28.3643C58.5604 29.0888 58.951 29.6534 59.4624 30.0582C59.9737 30.456 60.5952 30.6548 61.3267 30.6548C62.0653 30.6548 62.6903 30.4524 63.2017 30.0476C63.7131 29.6357 64.1001 29.0675 64.3629 28.343C64.6328 27.6115 64.7678 26.7699 64.7678 25.8182C64.7678 24.8736 64.6364 24.0426 64.3736 23.3253C64.1108 22.608 63.7237 22.0469 63.2124 21.642C62.701 21.2372 62.0724 21.0348 61.3267 21.0348C60.5881 21.0348 59.9631 21.2301 59.4517 21.6207C58.9474 22.0114 58.5604 22.5653 58.2905 23.2827C58.0206 24 57.8857 24.8452 57.8857 25.8182ZM76.9686 12.1818V34H72.4302V12.1818H76.9686ZM87.9975 34.3196C86.3427 34.3196 84.9116 33.968 83.7042 33.2649C82.5039 32.5547 81.5771 31.5675 80.9237 30.3033C80.2702 29.032 79.9435 27.5582 79.9435 25.8821C79.9435 24.1918 80.2702 22.7145 80.9237 21.4503C81.5771 20.179 82.5039 19.1918 83.7042 18.4886C84.9116 17.7784 86.3427 17.4233 87.9975 17.4233C89.6523 17.4233 91.0799 17.7784 92.2802 18.4886C93.4876 19.1918 94.418 20.179 95.0714 21.4503C95.7248 22.7145 96.0515 24.1918 96.0515 25.8821C96.0515 27.5582 95.7248 29.032 95.0714 30.3033C94.418 31.5675 93.4876 32.5547 92.2802 33.2649C91.0799 33.968 89.6523 34.3196 87.9975 34.3196ZM88.0188 30.804C88.7717 30.804 89.4002 30.5909 89.9045 30.1648C90.4087 29.7315 90.7887 29.142 91.0444 28.3963C91.3072 27.6506 91.4386 26.8018 91.4386 25.8501C91.4386 24.8984 91.3072 24.0497 91.0444 23.304C90.7887 22.5582 90.4087 21.9687 89.9045 21.5355C89.4002 21.1023 88.7717 20.8857 88.0188 20.8857C87.2589 20.8857 86.6197 21.1023 86.1012 21.5355C85.5898 21.9687 85.2028 22.5582 84.94 23.304C84.6843 24.0497 84.5565 24.8984 84.5565 25.8501C84.5565 26.8018 84.6843 27.6506 84.94 28.3963C85.2028 29.142 85.5898 29.7315 86.1012 30.1648C86.6197 30.5909 87.2589 30.804 88.0188 30.804ZM106.396 34.3196C104.72 34.3196 103.278 33.9645 102.071 33.2543C100.87 32.5369 99.9471 31.5426 99.3008 30.2713C98.6616 29 98.342 27.5369 98.342 25.8821C98.342 24.206 98.6651 22.7358 99.3114 21.4716C99.9648 20.2003 100.892 19.2095 102.092 18.4993C103.292 17.782 104.72 17.4233 106.375 17.4233C107.802 17.4233 109.052 17.6825 110.125 18.201C111.197 18.7195 112.046 19.4474 112.671 20.3849C113.296 21.3224 113.64 22.4233 113.704 23.6875H109.422C109.301 22.8707 108.981 22.2138 108.463 21.7166C107.951 21.2124 107.28 20.9602 106.449 20.9602C105.746 20.9602 105.132 21.152 104.606 21.5355C104.088 21.9119 103.683 22.4624 103.392 23.1868C103.1 23.9112 102.955 24.7884 102.955 25.8182C102.955 26.8622 103.097 27.75 103.381 28.4815C103.672 29.2131 104.081 29.7706 104.606 30.1541C105.132 30.5376 105.746 30.7294 106.449 30.7294C106.968 30.7294 107.433 30.6229 107.845 30.4098C108.264 30.1967 108.608 29.8878 108.878 29.483C109.155 29.071 109.336 28.5774 109.422 28.0021H113.704C113.633 29.2521 113.292 30.353 112.681 31.3047C112.078 32.2493 111.243 32.9879 110.178 33.5206C109.113 34.0533 107.852 34.3196 106.396 34.3196ZM120.722 29.2912L120.733 23.8473H121.393L126.635 17.6364H131.844L124.802 25.8608H123.726L120.722 29.2912ZM116.61 34V12.1818H121.148V34H116.61ZM126.837 34L122.022 26.8729L125.047 23.6662L132.153 34H126.837ZM134.071 34V17.6364H138.609V34H134.071ZM136.351 15.527C135.676 15.527 135.097 15.3033 134.614 14.8558C134.138 14.4013 133.9 13.858 133.9 13.2259C133.9 12.6009 134.138 12.0646 134.614 11.6172C135.097 11.1626 135.676 10.9354 136.351 10.9354C137.025 10.9354 137.601 11.1626 138.077 11.6172C138.559 12.0646 138.801 12.6009 138.801 13.2259C138.801 13.858 138.559 14.4013 138.077 14.8558C137.601 15.3033 137.025 15.527 136.351 15.527ZM151.044 17.6364V21.0455H140.945V17.6364H151.044ZM143.257 34V16.4538C143.257 15.2678 143.488 14.2841 143.949 13.5028C144.418 12.7216 145.057 12.1357 145.867 11.745C146.676 11.3544 147.596 11.1591 148.626 11.1591C149.322 11.1591 149.958 11.2124 150.533 11.3189C151.115 11.4254 151.549 11.5213 151.833 11.6065L151.023 15.0156C150.846 14.9588 150.625 14.9055 150.363 14.8558C150.107 14.8061 149.844 14.7812 149.574 14.7812C148.907 14.7812 148.441 14.9375 148.179 15.25C147.916 15.5554 147.784 15.9851 147.784 16.5391V34H143.257ZM156.619 40.1364C156.044 40.1364 155.504 40.0902 154.999 39.9979C154.502 39.9126 154.09 39.8026 153.764 39.6676L154.786 36.2798C155.319 36.4432 155.798 36.532 156.225 36.5462C156.658 36.5604 157.031 36.4609 157.343 36.2479C157.663 36.0348 157.922 35.6726 158.121 35.1612L158.387 34.4688L152.517 17.6364H157.29L160.678 29.6534H160.848L164.268 17.6364H169.073L162.713 35.7685C162.407 36.6491 161.992 37.4162 161.466 38.0696C160.948 38.7301 160.291 39.2379 159.495 39.593C158.7 39.9553 157.741 40.1364 156.619 40.1364Z" fill="white"/>
</svg>
