<svg width="27" height="30" viewBox="0 0 27 30" fill="none" xmlns="http://www.w3.org/2000/svg">
<g clip-path="url(#clip0_39_1564)">
<path d="M18.2006 7.5C18.2006 6.2568 17.722 5.06451 16.8699 4.18544C16.0178 3.30636 14.8622 2.8125 13.6572 2.8125C12.4522 2.8125 11.2966 3.30636 10.4445 4.18544C9.59243 5.06451 9.11375 6.2568 9.11375 7.5C9.11375 8.7432 9.59243 9.93549 10.4445 10.8146C11.2966 11.6936 12.4522 12.1875 13.6572 12.1875C14.8622 12.1875 16.0178 11.6936 16.8699 10.8146C17.722 9.93549 18.2006 8.7432 18.2006 7.5ZM6.38768 7.5C6.38768 5.51088 7.15357 3.60322 8.51687 2.1967C9.88017 0.790176 11.7292 0 13.6572 0C15.5852 0 17.4342 0.790176 18.7975 2.1967C20.1608 3.60322 20.9267 5.51088 20.9267 7.5C20.9267 9.48912 20.1608 11.3968 18.7975 12.8033C17.4342 14.2098 15.5852 15 13.6572 15C11.7292 15 9.88017 14.2098 8.51687 12.8033C7.15357 11.3968 6.38768 9.48912 6.38768 7.5ZM3.73544 27.1875H23.5789C23.0735 23.4785 19.9839 20.625 16.2526 20.625H11.0617C7.33045 20.625 4.2409 23.4785 3.73544 27.1875ZM0.935547 28.2598C0.935547 22.4883 5.46763 17.8125 11.0617 17.8125H16.2526C21.8468 17.8125 26.3788 22.4883 26.3788 28.2598C26.3788 29.2207 25.6235 30 24.6921 30H2.6223C1.69089 30 0.935547 29.2207 0.935547 28.2598Z" fill="black"/>
</g>
<defs>
<clipPath id="clip0_39_1564">
<rect width="25.4433" height="30" fill="white" transform="translate(0.935547)"/>
</clipPath>
</defs>
</svg>
